<svg width="281" height="116" viewBox="0 0 281 116" fill="none" xmlns="http://www.w3.org/2000/svg">
<path d="M73.1757 60.6055C72.2286 60.2813 71.2734 59.9809 70.311 59.7047C70.4727 59.0457 70.6215 58.3947 70.7536 57.7551C72.9223 47.2523 71.5045 38.791 66.662 36.0051C62.0191 33.3344 54.4259 36.1192 46.7573 42.7776C46.0016 43.435 45.2626 44.1113 44.541 44.806C44.058 44.3441 43.5664 43.8911 43.0666 43.4474C35.0295 36.328 26.9736 33.3274 22.1363 36.1213C17.4975 38.8003 16.1239 46.7545 18.0764 56.7083C18.2706 57.6942 18.49 58.6749 18.7342 59.6496C17.5938 59.9728 16.4935 60.3169 15.4405 60.6832C6.01758 63.9609 0 69.0973 0 74.4252C0 79.9279 6.46015 85.4473 16.2745 88.794C17.0702 89.0642 17.8724 89.3146 18.6806 89.5449C18.4181 90.5947 18.1851 91.6516 17.9818 92.7144C16.1205 102.495 17.574 110.262 22.2003 112.924C26.9785 115.673 34.9982 112.847 42.8069 106.037C43.4401 105.483 44.0594 104.914 44.6641 104.33C45.4455 105.082 46.2477 105.812 47.0699 106.52C54.6342 113.013 62.1046 115.635 66.7264 112.966C71.5 110.209 73.0516 101.866 71.0373 91.7155C70.8786 90.9203 70.7007 90.129 70.5036 89.3424C71.0668 89.1759 71.6196 89.0045 72.1585 88.8263C82.3615 85.4539 89 80.0015 89 74.4252C89 69.0779 82.7881 63.9068 73.1757 60.6055ZM70.9629 85.226C70.4762 85.3866 69.9769 85.5416 69.468 85.6925C68.3416 82.1349 66.8216 78.3522 64.9613 74.4436C66.7364 70.6283 68.198 66.8938 69.2928 63.3594C70.2033 63.6224 71.0867 63.8995 71.9384 64.1919C80.1744 67.0208 85.198 71.2027 85.198 74.4252C85.198 77.8576 79.7725 82.3135 70.9629 85.226ZM67.3076 92.4522C68.1983 96.9404 68.3252 100.998 67.7353 104.171C67.2054 107.022 66.1395 108.922 64.8212 109.684C62.0167 111.303 56.0185 109.198 49.5497 103.644C48.785 102.986 48.0387 102.307 47.3118 101.608C49.8198 98.872 52.3261 95.691 54.7722 92.1581C59.0748 91.7772 63.1396 91.1543 66.8258 90.3042C67.0034 91.0163 67.164 91.7325 67.3076 92.4522ZM30.342 109.404C27.6018 110.369 25.4192 110.397 24.0999 109.638C21.2926 108.022 20.1255 101.787 21.7174 93.422C21.9066 92.4336 22.1233 91.4506 22.3672 90.4741C26.0127 91.2788 30.0479 91.8574 34.3606 92.2063C36.8234 95.6633 39.402 98.8407 42.0007 101.623C41.4484 102.156 40.8831 102.676 40.3052 103.181C36.8519 106.192 33.3917 108.329 30.342 109.404ZM17.5045 85.2048C13.1647 83.7249 9.58071 81.8016 7.12417 79.7028C4.91655 77.817 3.80232 75.9444 3.80232 74.4252C3.80232 71.1919 8.6337 67.0679 16.692 64.2651C17.67 63.9252 18.6935 63.6043 19.7556 63.3033C20.8695 66.9174 22.3303 70.6963 24.0933 74.5175C22.3074 78.3952 20.8257 82.2345 19.701 85.8913C18.9633 85.6804 18.2309 85.4516 17.5045 85.2048ZM21.8078 55.9796C20.1352 47.4517 21.246 41.0188 24.0415 39.4042C27.0188 37.6845 33.6027 40.1364 40.5423 46.2839C40.9948 46.6857 41.44 47.0956 41.8776 47.5134C39.2918 50.2837 36.7368 53.4376 34.2959 56.8741C30.1102 57.2612 26.1034 57.8828 22.4197 58.7155C22.1927 57.8089 21.9887 56.8965 21.8078 55.9796ZM60.1984 65.4374C59.3283 63.938 58.4259 62.4574 57.4919 60.9967C60.3316 61.355 63.0523 61.8306 65.6073 62.4119C64.8403 64.8648 63.8843 67.429 62.7589 70.0581C61.9363 68.501 61.0827 66.9605 60.1984 65.4374ZM44.5428 50.2244C46.2963 52.1199 48.0527 54.236 49.7802 56.5321C46.2758 56.367 42.7656 56.3663 39.2612 56.5301C40.9904 54.2551 42.7617 52.1418 44.5428 50.2244ZM28.7866 65.4634C27.9134 66.9742 27.0757 68.5052 26.2741 70.055C25.1672 67.4352 24.2198 64.8592 23.4463 62.3716C25.9856 61.8049 28.6935 61.3415 31.515 60.9898C30.5706 62.4594 29.6609 63.9512 28.7866 65.4634ZM31.596 88.1305C28.6809 87.8058 25.9324 87.3664 23.3938 86.8149C24.1795 84.2829 25.1477 81.6521 26.2786 78.9762C27.0834 80.5271 27.9246 82.059 28.8016 83.5705C29.7034 85.1244 30.6372 86.6463 31.596 88.1305ZM44.6478 98.8931C42.8455 96.9536 41.0481 94.8076 39.2928 92.4997C40.997 92.5663 42.7343 92.6003 44.5 92.6003C46.3141 92.6003 48.1073 92.5597 49.8723 92.4813C48.1393 94.8309 46.3895 96.9799 44.6478 98.8931ZM62.7947 78.8395C63.9844 81.5449 64.987 84.1619 65.7832 86.6505C63.2029 87.2381 60.4167 87.7112 57.4811 88.0625C58.4218 86.5747 59.3327 85.0684 60.2134 83.5445C61.1087 81.9955 61.9694 80.4268 62.7947 78.8395ZM56.92 81.6493C55.5719 83.9858 54.1479 86.2779 52.6505 88.5221C49.9379 88.7138 47.2194 88.809 44.5 88.8075C41.7302 88.8075 39.0362 88.7215 36.442 88.5536C34.9055 86.3147 33.4544 84.0186 32.0918 81.6701C30.7357 79.3342 29.4693 76.9476 28.2947 74.5157C29.4663 72.0833 30.7292 69.6956 32.0807 67.3579L32.0803 67.3582C33.4313 65.0199 34.8708 62.7336 36.3958 60.5042C39.0425 60.3044 41.7566 60.2004 44.4997 60.2004C47.2552 60.2004 49.9732 60.3055 52.6192 60.5066C54.1287 62.7326 55.559 65.0111 56.9075 67.3378C58.2635 69.6704 59.5431 72.0464 60.7442 74.462C59.5554 76.9023 58.2799 79.2996 56.92 81.6493ZM64.7631 39.2911C67.7433 41.0059 68.9023 47.921 67.0299 56.9893C66.9103 57.5678 66.7761 58.1571 66.6301 58.7547C62.9373 57.9043 58.9277 57.272 54.7298 56.879C52.2844 53.4046 49.7503 50.2459 47.2065 47.5114C47.8732 46.8702 48.5557 46.2457 49.2535 45.6384C55.8242 39.9338 61.9652 37.6814 64.7631 39.2911ZM44.5 66.4963C48.8892 66.4963 52.4474 70.0463 52.4474 74.4252C52.4474 78.8041 48.8892 82.3541 44.5 82.3541C40.1108 82.3541 36.5526 78.8041 36.5526 74.4252C36.5526 70.0463 40.1108 66.4963 44.5 66.4963Z" fill="#00D8FF"/>
<g clip-path="url(#clip0_69_16)">
<path d="M164.891 38H126.109C116.66 38 109 45.6601 109 55.1094V93.8906C109 103.34 116.66 111 126.109 111H164.891C174.34 111 182 103.34 182 93.8906V55.1094C182 45.6601 174.34 38 164.891 38Z" fill="#007ACC"/>
<path d="M125.143 74.7422L125.12 77.7318H134.621V104.73H141.342V77.7318H150.844V74.8001C150.844 73.1778 150.809 71.8222 150.763 71.7874C150.728 71.7412 144.946 71.7178 137.936 71.7295L125.178 71.7643L125.143 74.7422ZM167.904 71.6793C169.758 72.143 171.171 72.9657 172.469 74.3096C173.141 75.0282 174.138 76.3377 174.219 76.6505C174.242 76.7431 171.067 78.8753 169.144 80.0686C169.074 80.1151 168.796 79.8137 168.483 79.3503C167.545 77.983 166.56 77.3919 165.053 77.2878C162.84 77.1369 161.415 78.2958 161.427 80.2309C161.427 80.7986 161.508 81.1346 161.739 81.5982C162.226 82.6062 163.13 83.2088 165.969 84.4369C171.195 86.6851 173.431 88.1682 174.821 90.2769C176.374 92.6292 176.722 96.3836 175.667 99.1761C174.509 102.212 171.635 104.274 167.591 104.958C166.34 105.178 163.373 105.144 162.029 104.9C159.097 104.379 156.317 102.93 154.602 101.03C153.93 100.288 152.62 98.3534 152.701 98.2143C152.736 98.1681 153.037 97.9827 153.373 97.7857C153.698 97.6003 154.926 96.8934 156.085 96.2213L158.182 95.0046L158.622 95.6536C159.237 96.592 160.58 97.8784 161.392 98.3069C163.721 99.5354 166.919 99.3615 168.495 97.9479C169.167 97.3337 169.445 96.6964 169.445 95.7579C169.445 94.9119 169.34 94.5412 168.9 93.9039C168.332 93.0929 167.174 92.4091 163.883 90.9838C160.117 89.3616 158.495 88.3536 157.012 86.7544C156.154 85.8277 155.343 84.3443 155.007 83.1044C154.729 82.0733 154.66 79.4892 154.88 78.4464C155.656 74.8081 158.402 72.2705 162.365 71.5171C163.651 71.2739 166.641 71.3665 167.904 71.6793Z" fill="white"/>
</g>
<g clip-path="url(#clip1_69_16)">
<path d="M242 116C249.176 116 255 110.176 255 103V90H242C234.824 90 229 95.824 229 103C229 110.176 234.824 116 242 116Z" fill="#0ACF83"/>
<path d="M229 77C229 69.824 234.824 64 242 64H255V90H242C234.824 90 229 84.176 229 77Z" fill="#A259FF"/>
<path d="M229 51C229 43.824 234.824 38 242 38H255V64H242C234.824 64 229 58.176 229 51Z" fill="#F24E1E"/>
<path d="M255 38H268C275.176 38 281 43.824 281 51C281 58.176 275.176 64 268 64H255V38Z" fill="#FF7262"/>
<path d="M281 77C281 84.176 275.176 90 268 90C260.824 90 255 84.176 255 77C255 69.824 260.824 64 268 64C275.176 64 281 69.824 281 77Z" fill="#1ABCFE"/>
</g>
<defs>
<clipPath id="clip0_69_16">
<rect width="73" height="73" fill="white" transform="translate(109 38)"/>
</clipPath>
<clipPath id="clip1_69_16">
<rect width="52" height="78" fill="white" transform="translate(229 38)"/>
</clipPath>
</defs>
</svg>
