<svg width="558" height="44" viewBox="0 0 558 44" fill="none" xmlns="http://www.w3.org/2000/svg">
<g clip-path="url(#clip0_69_17)">
<path d="M23.6456 11C17.34 11 13.3987 14.1941 11.8226 20.5822C14.1873 17.3877 16.946 16.1901 20.0988 16.989C21.8972 17.4443 23.1831 18.7666 24.6063 20.2302C26.9245 22.6136 29.6076 25.3731 35.4682 25.3731C41.7737 25.3731 45.7146 22.179 47.2907 15.7909C44.9265 18.9854 42.1678 20.183 39.015 19.3842C37.2161 18.9288 35.9306 17.6066 34.5074 16.143C32.1888 13.7595 29.5061 11 23.6456 11ZM11.8226 25.3731C5.51747 25.3731 1.57616 28.5672 0 34.9554C2.36469 31.7608 5.12298 30.5632 8.27576 31.3621C10.0747 31.8175 11.3605 33.1397 12.7833 34.6028C15.1019 36.9872 17.7851 39.7458 23.6456 39.7458C29.9507 39.7458 33.8916 36.5522 35.4682 30.164C33.1035 33.3585 30.3447 34.5562 27.1924 33.7573C25.3935 33.3019 24.1076 31.9797 22.6844 30.5161C20.3662 28.1327 17.6831 25.3731 11.8226 25.3731Z" fill="url(#paint0_linear_69_17)"/>
<path d="M70.9327 23.112H66.8063V31.2039C66.8063 33.3617 68.204 33.3281 70.9327 33.1931V36.4633C65.4086 37.1375 63.2121 35.5869 63.2121 31.2039V23.1124H60.1505V19.6061H63.2121V15.0776L66.8063 13.9992V19.6061H70.9327V23.1124V23.112ZM86.6631 19.6061H90.2573V36.4633H86.6631V34.0359C85.3987 35.823 83.4352 36.9019 80.8397 36.9019C76.3134 36.9019 72.5527 33.0245 72.5527 28.0347C72.5527 23.0114 76.3134 19.168 80.8392 19.168C83.4352 19.168 85.3987 20.2464 86.6631 22V19.6061ZM81.405 33.4292C84.3999 33.4292 86.6631 31.1703 86.6631 28.0347C86.6631 24.8991 84.3999 22.6403 81.405 22.6403C78.4101 22.6403 76.147 24.8991 76.147 28.0347C76.147 31.1703 78.4101 33.4292 81.405 33.4292ZM96.2475 17.0772C94.9827 17.0772 93.9513 15.9988 93.9513 14.7514C93.9525 14.1347 94.1948 13.5437 94.6251 13.1077C95.0555 12.6717 95.6389 12.4262 96.2475 12.425C96.8562 12.4262 97.4396 12.6717 97.8699 13.1077C98.3003 13.5437 98.5426 14.1347 98.5438 14.7514C98.5438 15.9988 97.512 17.0772 96.2475 17.0772ZM94.4504 36.4633V19.6061H98.0442V36.4633H94.4504ZM102.204 36.4633V11.8518H105.798V36.4633H102.204ZM129.127 19.6061H132.921L127.696 36.4633H124.168L120.707 25.1016L117.213 36.4633H113.686L108.461 19.6061H112.254L115.483 31.2379L118.977 19.6061H122.405L125.865 31.2379L129.127 19.6061ZM137.38 17.0777C136.115 17.0777 135.084 15.9988 135.084 14.7514C135.085 14.1347 135.327 13.5437 135.757 13.1077C136.188 12.6717 136.771 12.4262 137.38 12.425C137.989 12.4262 138.572 12.6717 139.002 13.1077C139.433 13.5437 139.675 14.1347 139.676 14.7514C139.676 15.9988 138.644 17.0772 137.38 17.0772V17.0777ZM135.583 36.4633V19.6061H139.177V36.4633H135.583ZM152.089 19.1675C155.816 19.1675 158.479 21.7299 158.479 26.113V36.4633H154.885V26.4837C154.885 23.9217 153.42 22.5732 151.157 22.5732C148.795 22.5732 146.931 23.9888 146.931 27.428V36.4633H143.337V19.6061H146.931V21.7639C148.029 20.0103 149.826 19.1675 152.089 19.1675ZM175.517 12.8632H179.112V36.4633H175.517V34.0359C174.253 35.823 172.289 36.9019 169.694 36.9019C165.168 36.9019 161.407 33.0245 161.407 28.0347C161.407 23.0114 165.168 19.168 169.693 19.168C172.289 19.168 174.253 20.2464 175.517 22V12.8632ZM170.259 33.4292C173.254 33.4292 175.517 31.1703 175.517 28.0347C175.517 24.8991 173.254 22.6403 170.259 22.6403C167.264 22.6403 165.001 24.8991 165.001 28.0347C165.001 31.1703 167.264 33.4292 170.259 33.4292ZM191.158 36.9019C186.133 36.9019 182.373 33.0245 182.373 28.0347C182.373 23.0114 186.133 19.168 191.158 19.168C194.42 19.168 197.248 20.8871 198.58 23.5171L195.485 25.3377C194.752 23.7531 193.122 22.7413 191.125 22.7413C188.196 22.7413 185.967 25.0006 185.967 28.0347C185.967 31.0688 188.196 33.3281 191.125 33.3281C193.122 33.3281 194.752 32.2828 195.551 30.7317L198.646 32.5188C197.248 35.1823 194.42 36.9019 191.158 36.9019ZM204.569 24.2588C204.569 27.3265 213.521 25.4723 213.521 31.7096C213.521 35.0808 210.626 36.9019 207.032 36.9019C203.704 36.9019 201.308 35.3844 200.244 32.957L203.339 31.1364C203.871 32.6539 205.202 33.5637 207.032 33.5637C208.63 33.5637 209.861 33.0245 209.861 31.676C209.861 28.6754 200.909 30.3611 200.909 24.3263C200.909 21.1567 203.605 19.168 206.999 19.168C209.728 19.168 211.99 20.4489 213.156 22.6742L210.128 24.3934C209.528 23.0789 208.364 22.4722 206.999 22.4722C205.701 22.4722 204.569 23.0449 204.569 24.2588ZM219.911 24.2588C219.911 27.3265 228.863 25.4723 228.863 31.7096C228.863 35.0808 225.968 36.9019 222.374 36.9019C219.046 36.9019 216.65 35.3844 215.585 32.957L218.68 31.1364C219.212 32.6539 220.544 33.5637 222.374 33.5637C223.971 33.5637 225.202 33.0245 225.202 31.676C225.202 28.6754 216.251 30.3611 216.251 24.3263C216.251 21.1567 218.946 19.168 222.341 19.168C225.069 19.168 227.332 20.4489 228.497 22.6742L225.469 24.3934C224.869 23.0789 223.705 22.4722 222.341 22.4722C221.043 22.4722 219.911 23.0449 219.911 24.2588Z" fill="#2D3748"/>
</g>
<g clip-path="url(#clip1_69_17)">
<path d="M255.687 36.7399C253.862 36.7399 252.218 36.3243 250.753 35.4926C249.289 34.6614 248.13 33.4983 247.278 32.0041C246.426 30.5098 246 28.7506 246 26.7261C246 24.6775 246.426 22.9064 247.278 21.4119C248.13 19.9176 249.289 18.7608 250.753 17.9416C252.218 17.122 253.862 16.7123 255.687 16.7123C257.319 16.7123 258.747 17.0739 259.972 17.7968C261.196 18.5199 262.144 19.6164 262.817 21.0865C263.489 22.5567 263.825 24.4366 263.825 26.7261C263.825 28.9917 263.5 30.8653 262.853 32.3476C262.204 33.83 261.274 34.9322 260.062 35.6554C258.85 36.3783 257.391 36.7399 255.687 36.7399ZM256.659 32.1126C257.571 32.1126 258.399 31.8955 259.144 31.4619C259.888 31.0278 260.482 30.4074 260.926 29.6C261.37 28.7926 261.592 27.8347 261.592 26.7261C261.592 25.5931 261.37 24.6296 260.926 23.8342C260.482 23.0387 259.888 22.4241 259.144 21.9902C258.399 21.5566 257.571 21.3396 256.659 21.3396C255.723 21.3396 254.882 21.5566 254.138 21.9902C253.394 22.4244 252.8 23.0387 252.356 23.8342C251.912 24.6294 251.69 25.5934 251.69 26.7261C251.69 27.8347 251.912 28.7926 252.356 29.6C252.8 30.4074 253.394 31.0281 254.138 31.4619C254.882 31.8958 255.723 32.1126 256.659 32.1126ZM261.736 36.4506V32.4742L261.844 26.6901L261.484 20.942V9.62688H267.102V36.4506H261.736ZM284.17 36.4506V32.6547L283.81 31.8235V25.0267C283.81 23.8217 283.444 22.8818 282.712 22.207C281.98 21.532 280.857 21.1948 279.345 21.1948C278.313 21.1948 277.298 21.3576 276.302 21.6829C275.306 22.0082 274.46 22.4479 273.763 23.0022L271.747 19.0621C272.803 18.3151 274.076 17.7367 275.564 17.3269C277.042 16.9186 278.568 16.7118 280.101 16.7123C283.054 16.7123 285.346 17.4111 286.979 18.809C288.611 20.2069 289.428 22.3878 289.428 25.3525V36.4506H284.17ZM278.264 36.7399C276.752 36.7399 275.456 36.4808 274.375 35.9627C273.295 35.4444 272.467 34.7398 271.891 33.8477C271.315 32.9562 271.026 31.9559 271.026 30.8473C271.026 29.6905 271.309 28.6783 271.873 27.8106C272.437 26.9431 273.331 26.2621 274.555 25.7681C275.78 25.2742 277.376 25.0269 279.345 25.0269H284.494V28.3167H279.957C278.637 28.3167 277.73 28.5338 277.238 28.9674C276.746 29.4015 276.5 29.9436 276.5 30.5942C276.5 31.3171 276.782 31.8897 277.346 32.3114C277.91 32.7331 278.685 32.944 279.669 32.944C280.605 32.944 281.445 32.7211 282.189 32.2754C282.934 31.8294 283.474 31.1726 283.81 30.3052L284.674 32.908C284.266 34.1611 283.522 35.113 282.442 35.7639C281.361 36.4146 279.969 36.7399 278.264 36.7399ZM294.505 36.4506V17.0016H300.122V36.4506H294.505H294.505ZM297.313 14.2902C296.281 14.2902 295.441 13.989 294.793 13.3865C294.145 12.784 293.821 12.0368 293.821 11.1452C293.821 10.2532 294.145 9.50618 294.793 8.90371C295.441 8.30124 296.281 8 297.314 8C298.346 8 299.186 8.28324 299.834 8.84971C300.483 9.41591 300.807 10.1449 300.807 11.0367C300.807 11.9764 300.489 12.7539 299.852 13.3685C299.216 13.9829 298.37 14.2902 297.314 14.2902H297.313ZM311.861 36.7399C310.205 36.7399 308.614 36.5411 307.09 36.1435C305.566 35.7457 304.359 35.2456 303.471 34.6432L305.344 30.5942C306.232 31.1485 307.282 31.6004 308.494 31.9498C309.707 32.2992 310.901 32.4739 312.077 32.4739C313.374 32.4739 314.292 32.3175 314.832 32.0041C315.372 31.6909 315.642 31.2571 315.642 30.7028C315.642 30.2448 315.432 29.9015 315.012 29.6725C314.592 29.4436 314.034 29.2689 313.338 29.1484C312.642 29.0277 311.879 28.9073 311.051 28.7868C310.21 28.6637 309.375 28.5008 308.549 28.2987C307.708 28.0938 306.94 27.7865 306.244 27.3767C305.548 26.9672 304.989 26.4129 304.569 25.7139C304.149 25.015 303.939 24.1113 303.939 23.0025C303.939 21.7734 304.293 20.6889 305.002 19.7492C305.71 18.809 306.736 18.0681 308.08 17.5257C309.425 16.9836 311.033 16.7123 312.905 16.7123C314.226 16.7123 315.57 16.8571 316.939 17.1464C318.307 17.4354 319.447 17.8571 320.36 18.4117L318.487 22.4241C317.551 21.8698 316.609 21.4902 315.661 21.2853C314.712 21.0804 313.794 20.9783 312.906 20.9783C311.657 20.9783 310.745 21.1469 310.169 21.4844C309.593 21.8216 309.305 22.2555 309.305 22.7857C309.305 23.2677 309.515 23.6293 309.935 23.8702C310.355 24.1111 310.913 24.304 311.609 24.4486C312.305 24.5934 313.068 24.7199 313.896 24.8281C314.739 24.9396 315.575 25.1026 316.399 25.3163C317.239 25.5333 318.001 25.8404 318.685 26.238C319.369 26.6358 319.928 27.1779 320.359 27.8649C320.792 28.5518 321.008 29.4494 321.008 30.5582C321.008 31.7632 320.648 32.8294 319.928 33.7575C319.207 34.6853 318.169 35.4145 316.813 35.9445C315.456 36.4747 313.806 36.7399 311.861 36.7399ZM326.913 43.753C325.905 43.753 324.909 43.5966 323.925 43.2832C322.94 42.9698 322.136 42.5362 321.512 41.9819L323.564 37.9689C323.997 38.3546 324.495 38.6558 325.059 38.8729C325.623 39.0897 326.181 39.1982 326.733 39.1982C327.525 39.1982 328.156 39.0114 328.624 38.6378C329.092 38.2644 329.518 37.6436 329.902 36.7762L330.91 34.3901L331.343 33.7755L338.292 17.0016H343.694L334.943 37.6436C334.319 39.2101 333.605 40.4394 332.801 41.331C331.997 42.2228 331.109 42.8493 330.136 43.2109C329.164 43.5725 328.09 43.753 326.913 43.753ZM330.226 37.2098L321.584 17.0016H327.382L334.08 33.2694L330.227 37.2098H330.226Z" fill="#570DF8"/>
<path d="M357.99 36.8847C354.413 36.8847 351.616 35.8841 349.6 33.884C347.583 31.8836 346.575 29.0277 346.575 25.3163V11.1453H352.408V25.0992C352.408 27.5094 352.9 29.2445 353.885 30.3052C354.869 31.3656 356.249 31.8958 358.026 31.8958C359.802 31.8958 361.183 31.3656 362.167 30.3049C363.151 29.2445 363.644 27.5096 363.644 25.0992V11.1453H369.405V25.3163C369.405 29.0277 368.397 31.8836 366.38 33.884C364.364 35.8844 361.567 36.8845 357.99 36.8845V36.8847ZM375.167 36.4506V11.1453H381V36.4506H375.167Z" fill="black"/>
</g>
<g clip-path="url(#clip2_69_17)">
<path d="M480.324 8.74276C474.272 8.74276 469.908 12.6769 469.908 18.5781C469.908 24.4795 474.82 28.4137 480.873 28.4137C484.53 28.4137 487.753 26.9711 489.749 24.5395L485.555 22.1245C484.447 23.332 482.764 24.0369 480.873 24.0369C478.247 24.0369 476.015 22.6709 475.187 20.4853H490.549C490.67 19.8731 490.741 19.2391 490.741 18.5726C490.741 12.6769 486.377 8.74276 480.324 8.74276ZM475.139 16.6657C475.824 14.4855 477.699 13.1138 480.319 13.1138C482.945 13.1138 484.821 14.4855 485.5 16.6657H475.139ZM539.36 8.74246C533.307 8.74246 528.943 12.6769 528.943 18.5781C528.943 24.4795 533.855 28.4137 539.908 28.4137C543.565 28.4137 546.789 26.9711 548.784 24.5395L544.59 22.1245C543.483 23.332 541.8 24.0369 539.908 24.0369C537.282 24.0369 535.051 22.6709 534.223 20.4853H549.584C549.705 19.8731 549.776 19.2391 549.776 18.5726C549.776 12.6769 545.412 8.74246 539.359 8.74246H539.36ZM534.179 16.6657C534.864 14.4855 536.739 13.1138 539.36 13.1138C541.986 13.1138 543.861 14.4855 544.541 16.6657H534.179ZM512.781 18.5781C512.781 21.8566 514.93 24.0423 518.263 24.0423C520.522 24.0423 522.216 23.0206 523.088 21.3539L527.298 23.7747C525.555 26.6706 522.288 28.4137 518.263 28.4137C512.205 28.4137 507.847 24.4792 507.847 18.5781C507.847 12.6769 512.211 8.74276 518.263 8.74276C522.288 8.74276 525.55 10.4858 527.298 13.3818L523.088 15.8025C522.216 14.1358 520.522 13.1141 518.263 13.1141C514.936 13.1141 512.781 15.2992 512.781 18.5781ZM558 2.73211V27.8672H553.066V2.73211H558ZM423.258 0L443.515 34.9707H403L423.258 0ZM473.905 2.73211L458.713 28.9601L443.521 2.73211H449.217L458.713 19.1248L468.208 2.73211H473.905ZM506.202 9.28918V14.5838C505.654 14.4254 505.073 14.3162 504.448 14.3162C501.262 14.3162 498.965 16.5019 498.965 19.7804V27.8672H494.031V9.28918H498.965V14.3159C498.965 11.54 502.205 9.28918 506.202 9.28918Z" fill="black"/>
</g>
<defs>
<linearGradient id="paint0_linear_69_17" x1="-131.374" y1="930.866" x2="3979.28" y2="3270.38" gradientUnits="userSpaceOnUse">
<stop stop-color="#2298BD"/>
<stop offset="1" stop-color="#0ED7B5"/>
</linearGradient>
<clipPath id="clip0_69_17">
<rect width="229" height="29" fill="white" transform="translate(0 11)"/>
</clipPath>
<clipPath id="clip1_69_17">
<rect width="135" height="36" fill="white" transform="translate(246 8)"/>
</clipPath>
<clipPath id="clip2_69_17">
<rect width="155" height="35" fill="white" transform="translate(403)"/>
</clipPath>
</defs>
</svg>
